<?xml version="1.0" standalone="no"?>
<!DOCTYPE svg PUBLIC "-//W3C//DTD SVG 20010904//EN"
 "http://www.w3.org/TR/2001/REC-SVG-20010904/DTD/svg10.dtd">
<svg version="1.0" xmlns="http://www.w3.org/2000/svg"
 width="256.000000pt" height="256.000000pt" viewBox="0 0 256.000000 256.000000"
 preserveAspectRatio="xMidYMid meet">
<metadata>
Created by potrace 1.11, written by Peter Selinger 2001-2013
</metadata>
<g transform="translate(0.000000,256.000000) scale(0.100000,-0.100000)"
fill="#000000" stroke="none">
<path d="M1140 2298 c0 -5 -4 -7 -8 -4 -7 4 -94 -12 -127 -23 -3 -1 -13 -4
-22 -7 -29 -10 -66 -23 -98 -35 -16 -7 -36 -13 -44 -15 -8 -1 -18 -9 -22 -16
-5 -7 -9 -8 -9 -3 0 7 -3 7 -8 0 -4 -5 -28 -21 -53 -35 -26 -14 -64 -38 -85
-55 -60 -47 -189 -178 -210 -213 -10 -18 -22 -32 -26 -32 -4 0 -8 -7 -8 -15 0
-8 -4 -15 -10 -15 -5 0 -10 -7 -10 -15 0 -9 -9 -25 -20 -37 -11 -12 -20 -29
-20 -39 0 -9 -7 -22 -15 -29 -8 -6 -14 -15 -13 -18 1 -4 -8 -33 -20 -64 -12
-32 -24 -69 -27 -83 -8 -41 -14 -69 -21 -95 -8 -32 -12 -302 -5 -315 3 -5 6
-14 7 -20 3 -20 13 -70 19 -98 5 -24 24 -80 50 -142 5 -11 9 -22 10 -25 5 -20
51 -99 69 -118 11 -13 20 -26 18 -28 -10 -14 217 -254 240 -254 5 0 18 -8 29
-18 10 -11 32 -25 47 -33 15 -8 29 -16 32 -20 9 -10 174 -77 220 -89 98 -26
141 -32 265 -35 98 -3 147 1 235 21 14 3 34 7 45 9 11 1 38 10 60 20 22 9 45
18 50 19 6 2 21 8 35 13 14 6 27 10 30 10 7 -1 160 95 190 118 69 55 182 179
230 254 30 46 55 86 55 90 1 3 11 25 23 47 11 23 18 44 15 48 -4 3 -1 6 5 6 7
0 11 3 10 8 -3 13 13 72 21 72 4 0 8 10 9 23 1 21 3 34 18 105 10 50 12 259 3
308 -5 27 -12 61 -14 76 -3 15 -9 37 -14 50 -5 13 -9 25 -9 28 -2 19 -54 154
-62 160 -3 3 -14 21 -24 40 -38 75 -47 90 -57 90 -5 0 -9 5 -9 12 0 14 -7 21
-106 123 -76 77 -222 185 -250 185 -8 0 -14 5 -14 10 0 6 -8 10 -18 10 -10 0
-22 4 -28 9 -17 16 -152 60 -204 66 -14 2 -25 4 -25 5 0 7 -66 12 -187 14 -79
2 -138 -1 -138 -6z m294 -334 c163 -36 297 -123 416 -270 28 -35 88 -159 104
-214 33 -117 37 -233 12 -350 -16 -74 -76 -214 -112 -258 -11 -13 -29 -35 -41
-50 -13 -15 -23 -30 -23 -34 0 -5 -7 -8 -15 -8 -8 0 -15 -4 -15 -9 0 -10 -105
-91 -119 -91 -5 0 -11 -4 -13 -8 -4 -11 -114 -58 -163 -71 -181 -45 -359 -24
-520 63 -77 41 -80 44 -161 123 -98 96 -151 189 -186 328 -57 227 9 475 174
651 37 39 177 144 193 144 3 0 26 9 50 20 120 55 273 67 419 34z"/>
</g>
</svg>
