<?xml version="1.0" encoding="UTF-8"?>
<svg width="16px" height="14px" viewBox="0 0 16 14" version="1.1" xmlns="http://www.w3.org/2000/svg" xmlns:xlink="http://www.w3.org/1999/xlink">
    <!-- Generator: Sketch 55.1 (78136) - https://sketchapp.com -->
    <title>addtocart_icon</title>
    <desc>Created with Sketch.</desc>
    <g id="Symbols" stroke="none" stroke-width="1" fill="none" fill-rule="evenodd">
        <g id="Button/Bottom/-Left-+-Icon" transform="translate(-162.000000, -16.000000)" fill="#FFFFFF">
            <g id="Group-6">
                <g id="Padding-Group-2">
                    <g id="Stacked-Group" transform="translate(82.000000, 16.000000)">
                        <g id="Icons/Shopping-Cart" transform="translate(80.000000, 0.000000)">
                            <g id="Shopping-Cart">
                                <path d="M14.6700117,7.84685524 L15.9831517,2.43018424 C16.0779573,2.03909017 15.7608737,1.666668 15.3330678,1.666668 L4.42244798,1.666668 L4.16783667,0.499739983 C4.10439217,0.208880375 3.83139195,2.9605971e-16 3.51469726,2.9605971e-16 L0.6666672,2.9605971e-16 C0.298472461,2.9605971e-16 7.8949256e-16,0.279817932 7.8949256e-16,0.6250005 L7.8949256e-16,1.0416675 C7.8949256e-16,1.38685007 0.298472461,1.666668 0.6666672,1.666668 L2.6078632,1.666668 L4.55919809,10.6102949 C4.09236438,10.8619879 3.7777808,11.3339153 3.7777808,11.8750095 C3.7777808,12.6804268 4.4742258,13.333344 5.3333376,13.333344 C6.1924494,13.333344 6.8888944,12.6804268 6.8888944,11.8750095 C6.8888944,11.4668321 6.70981092,11.0980558 6.42156069,10.833342 L12.2450931,10.833342 C11.9568707,11.0980558 11.7777872,11.4668321 11.7777872,11.8750095 C11.7777872,12.6804268 12.4742322,13.333344 13.333344,13.333344 C14.1924558,13.333344 14.8889008,12.6804268 14.8889008,11.8750095 C14.8889008,11.2976132 14.5309005,10.7986545 14.0117057,10.5623782 L14.1649558,9.93019024 C14.2597614,9.53909617 13.9426778,9.166674 13.5148719,9.166674 L6.0588104,9.166674 L5.8770047,8.33334 L14.0199279,8.33334 C14.3312059,8.33334 14.6010395,8.13141276 14.6700117,7.84685524 Z" id="Path"></path>
                            </g>
                        </g>
                    </g>
                </g>
            </g>
        </g>
    </g>
</svg>