<?xml version="1.0" encoding="UTF-8"?>
<svg width="18px" height="21px" viewBox="0 0 18 21" version="1.1" xmlns="http://www.w3.org/2000/svg" xmlns:xlink="http://www.w3.org/1999/xlink">
    <!-- Generator: Sketch 55.1 (78136) - https://sketchapp.com -->
    <title>cart_icon</title>
    <desc>Created with Sketch.</desc>
    <g id="Wynand-Fockink-website" stroke="none" stroke-width="1" fill="none" fill-rule="evenodd" fill-opacity="0.55">
        <g id="History-Page" transform="translate(-1295.000000, -44.000000)" fill="#FFFFFF" fill-rule="nonzero">
            <g id="Group">
                <g id="Action-bar">
                    <g id="Stacked-Group" transform="translate(1128.000000, 44.000000)">
                        <g transform="translate(167.000000, 0.000000)" id="cart_icon">
                            <g>
                                <path d="M13.4138475,7.39061685 L13.41504,9.21185193 C13.41504,9.82005908 12.9113606,10.3131079 12.29004,10.3131079 C11.6687194,10.3131079 11.16504,9.82005908 11.16504,9.21185193 L11.16504,7.39061685 L6.75887625,7.39061685 L6.76011825,9.21185193 C6.76011825,9.82005908 6.25643888,10.3131079 5.63511825,10.3131079 C5.01379763,10.3131079 4.51011825,9.82005908 4.51011825,9.21185193 L4.51011825,7.39061685 L3.07036575,7.39061685 L2.25005288,18.4031765 L15.5800654,18.4031765 L14.7597525,7.39061685 L13.4138925,7.39061685 L13.4138475,7.39061685 Z M4.55522625,5.18810493 C4.90030313,1.8607922 6.3689625,0 8.9625825,0 C11.5722338,0 13.04298,1.88387452 13.3741687,5.18810493 L14.7597075,5.18810493 C15.938865,5.18810493 16.9179975,6.07923024 17.003745,7.23043917 L17.8240579,18.2429988 C17.9144272,19.4561864 16.9829944,20.5113878 15.7436404,20.5998517 C15.6618987,20.604711 15.6618987,20.604711 15.5800125,20.6056836 L2.25,20.6056836 C1.00735875,20.6056836 0,19.619586 0,18.4031717 C0.00099361125,18.3230137 0.00099361125,18.3230137 0.00595769625,18.2429973 L0.826270571,7.23043774 C0.912022909,6.07922881 1.89115732,5.1881035 3.07030807,5.1881035 L4.55516182,5.1881035 L4.55522625,5.18810493 Z M6.81152625,5.18810493 L11.118015,5.18810493 C10.8848857,3.0763365 10.1659894,2.20251192 8.9625825,2.20251192 C7.76961,2.20251192 7.0527825,3.0612548 6.81152625,5.18810493 L6.81152625,5.18810493 Z" id="Shape"></path>
                            </g>
                        </g>
                    </g>
                </g>
            </g>
        </g>
    </g>
</svg>