<?xml version="1.0" encoding="UTF-8"?>
<svg width="16px" height="15px" viewBox="0 0 16 15" version="1.1" xmlns="http://www.w3.org/2000/svg" xmlns:xlink="http://www.w3.org/1999/xlink">
    <!-- Generator: Sketch 55.1 (78136) - https://sketchapp.com -->
    <title>country_icon</title>
    <desc>Created with Sketch.</desc>
    <g id="Symbols" stroke="none" stroke-width="1" fill="none" fill-rule="evenodd">
        <g id="footer" transform="translate(-1044.000000, -251.000000)" fill="#FFFFFF" fill-rule="nonzero">
            <g id="Group-7">
                <g transform="translate(108.000000, 80.000000)">
                    <g id="column_3" transform="translate(936.000000, 0.000000)">
                        <g id="Group-8" transform="translate(0.000000, 165.000000)">
                            <g id="Group-4">
                                <g id="Group-6" transform="translate(0.000000, 5.125000)">
                                    <g id="country_icon" transform="translate(0.000000, 1.000000)">
                                        <path d="M8,0 C3.5816129,0 0,3.18365591 0,7.11111111 C0,11.0385663 3.5816129,14.2222222 8,14.2222222 C12.4183871,14.2222222 16,11.0385663 16,7.11111111 C16,3.18365591 12.4183871,0 8,0 Z M13.1612903,6.17921147 L13.1612903,6.37792115 C13.1612903,6.54623656 13.0541935,6.70021505 12.8848387,6.7753405 L12.3883871,6.99612903 C12.2279014,7.06752395 12.0366633,7.05690646 11.8874194,6.96831541 L11.3,6.62021505 C11.1715898,6.54419342 11.0109195,6.52504522 10.8645161,6.56831541 L10.7790323,6.59354839 C10.466129,6.68616487 10.3383871,7.01763441 10.5212903,7.26164875 L10.9483871,7.83111111 C11.0409677,7.95469534 11.1970968,8.02896057 11.3641935,8.02896057 L11.6290323,8.02896057 C11.9051613,8.02896057 12.1290323,8.22795699 12.1290323,8.47340502 L12.1290323,8.79856631 C12.1290323,8.89462366 12.093871,8.9883871 12.0290323,9.06523297 L11.4245161,9.78150538 C11.3787097,9.83598566 11.3474194,9.8990681 11.3332258,9.96587814 L11.1945161,10.6205018 C11.1745161,10.7148387 11.1206452,10.8008602 11.0409677,10.8659498 C10.7352653,11.114787 10.4644879,11.395529 10.2345161,11.7020789 L9.81419355,12.2626523 C9.6481656,12.4840283 9.36867101,12.6170609 9.06935484,12.6170609 C8.73032258,12.6170609 8.42032258,12.4467384 8.26870968,12.1772043 C8.09198014,11.8630206 7.99998115,11.5165732 8,11.1653047 L8,10.3082437 C8,10.0627957 7.77612903,9.86379928 7.5,9.86379928 L6.66516129,9.86379928 C6.19774194,9.86379928 5.74967742,9.69863799 5.41903226,9.40501792 C5.08863481,9.11119068 4.90290323,8.71278271 4.90290323,8.29734767 L4.90290323,7.89419355 C4.90290323,7.40129032 5.16419355,6.93706093 5.60774194,6.64114695 L6.49741935,6.0478853 C6.80249707,5.84453373 7.17351423,5.73456918 7.55483871,5.73448029 L7.58354839,5.73448029 C7.85709677,5.73448029 8.12709677,5.79096774 8.3716129,5.89992832 L8.84645161,6.11096774 C8.96516129,6.1637276 9.10225806,6.17232975 9.22806452,6.13505376 L10.7541935,5.68286738 C10.9583871,5.62236559 11.096129,5.45261649 11.096129,5.26136201 C11.096129,5.01591398 10.8722581,4.81691756 10.596129,4.81691756 L10.2706452,4.81691756 C10.1380645,4.81691756 10.0109677,4.77017921 9.91709677,4.68673835 L9.69387097,4.48831541 C9.60011888,4.40494667 9.47293475,4.3581165 9.34032258,4.3581362 L6.43548387,4.3581362 C6.15935484,4.3581362 5.93548387,4.15913978 5.93548387,3.91369176 L5.93548387,3.78752688 C5.93548387,3.58365591 6.0916129,3.40587814 6.31419355,3.3562724 L6.78032258,3.25275986 C6.90096774,3.22580645 7.00612903,3.16014337 7.07516129,3.06810036 L7.33580645,2.72086022 C7.4283871,2.59727599 7.58451613,2.52301075 7.7516129,2.52301075 L8.53258065,2.52301075 C8.80870968,2.52301075 9.03258065,2.32401434 9.03258065,2.07856631 L9.03258065,1.45634409 C11.5880645,1.82451613 13.6406452,3.5274552 14.2558065,5.73476703 L13.6612903,5.73476703 C13.3851613,5.73476703 13.1612903,5.93376344 13.1612903,6.17921147 Z" id="Shape"></path>
                                    </g>
                                </g>
                            </g>
                        </g>
                    </g>
                </g>
            </g>
        </g>
    </g>
</svg>