<svg width="18" height="16" viewBox="0 0 18 16" fill="none" xmlns="http://www.w3.org/2000/svg">
<g clip-path="url(#clip0)">
<path d="M16.5031 5.35928L11.9375 4.69366L9.89689 0.556158C9.53127 -0.181342 8.47189 -0.190717 8.10314 0.556158L6.06251 4.69366L1.49689 5.35928C0.67814 5.47803 0.350015 6.48741 0.943765 7.06553L4.24689 10.2843L3.46564 14.8312C3.32501 15.653 4.19064 16.2687 4.91564 15.8843L9.00002 13.7374L13.0844 15.8843C13.8094 16.2655 14.675 15.653 14.5344 14.8312L13.7531 10.2843L17.0563 7.06553C17.65 6.48741 17.3219 5.47803 16.5031 5.35928ZM12.6813 9.93428L13.55 14.9968L9.00002 12.6093L4.45314 14.9999L5.32189 9.93741L1.64064 6.34678L6.72501 5.60928L9.00002 0.999908L11.275 5.60928L16.3594 6.34678L12.6813 9.93428Z" fill="#EEB55D"/>
<path d="M9.00002 0C8.64377 0 8.28751 0.184375 8.10314 0.55625L6.06251 4.69375L1.49689 5.35625C0.67814 5.475 0.350015 6.48438 0.943765 7.0625L4.24689 10.2812L3.46564 14.8281C3.32501 15.6438 4.18439 16.2656 4.91564 15.8813L9.00002 13.7375V0Z" fill="#EEB55D"/>
</g>
<defs>
<clipPath id="clip0">
<rect width="18" height="16" fill="white"/>
</clipPath>
</defs>
</svg>
