<svg width="60" height="18" viewBox="0 0 60 18" fill="none" xmlns="http://www.w3.org/2000/svg">
<g clip-path="url(#clip0)">
<path fill-rule="evenodd" clip-rule="evenodd" d="M20.6968 3.01091C20.6968 1.08175 21.8298 0.117188 24.0957 0.117188V2.10052C23.8416 2.38231 23.5981 2.71828 23.3651 3.10845L23.5557 3.2385C24.1699 2.28476 24.9799 1.52612 25.9858 0.962544C26.9917 0.39897 28.0982 0.117188 29.3053 0.117188C30.4066 0.117188 31.3701 0.361038 32.196 0.848746C33.022 1.33645 33.6626 2.01382 34.1179 2.88085C34.5732 3.74789 34.8008 4.71245 34.8008 5.77457V14.6183C34.8008 15.442 34.5044 16.0381 33.9114 16.4066C33.3184 16.7751 32.429 16.9593 31.2431 16.9593V6.26228C31.2431 5.37357 30.9836 4.65285 30.4648 4.10012C29.946 3.54738 29.1889 3.27102 28.1935 3.27102C27.0923 3.27102 26.1605 3.62325 25.3981 4.32771C24.6357 5.03218 24.2546 5.89379 24.2546 6.91256V14.6183C24.2546 15.442 23.9634 16.0381 23.381 16.4066C22.7986 16.7751 21.9039 16.9593 20.6968 16.9593V3.01091ZM45.6055 16.9593C44.3137 16.9593 43.1331 16.6992 42.0636 16.179C40.9942 15.6587 40.1524 14.938 39.5383 14.0168C38.9241 13.0956 38.617 12.0606 38.617 10.9117V6.42485C38.617 5.23267 38.9347 4.15973 39.57 3.20599C40.2053 2.25225 41.063 1.49902 42.1431 0.946287C43.2231 0.393551 44.3878 0.117188 45.6373 0.117188C46.8868 0.117188 48.025 0.377295 49.0521 0.897517C50.0793 1.41774 50.8946 2.14929 51.4981 3.09219C52.1017 4.0351 52.4035 5.09178 52.4035 6.26228V8.18059C52.4035 8.61411 52.2446 8.98259 51.927 9.28606C51.6093 9.58952 51.2069 9.74125 50.7199 9.74125H42.0795V10.6841C42.0795 11.6812 42.3813 12.4832 42.9849 13.0902C43.5884 13.6971 44.4726 14.0005 45.6373 14.0005C46.7809 14.0005 47.6386 13.7459 48.2104 13.2365C48.7821 12.7271 49.068 12.0497 49.068 11.2044C49.1951 11.1827 49.3857 11.1719 49.6398 11.1719C50.3598 11.1719 50.9369 11.3398 51.3711 11.6758C51.8052 12.0118 52.0223 12.4832 52.0223 13.0902C52.0223 13.7404 51.7364 14.3636 51.1646 14.9597C50.5928 15.5558 49.8145 16.0381 48.8298 16.4066C47.845 16.7751 46.7703 16.9593 45.6055 16.9593ZM49.1316 7.04261V6.26228C49.1316 5.28686 48.8086 4.50112 48.1627 3.90504C47.5168 3.30895 46.6644 3.01091 45.6055 3.01091C44.5467 3.01091 43.6943 3.30895 43.0484 3.90504C42.4025 4.50112 42.0795 5.28686 42.0795 6.26228V7.04261H49.1316ZM57.6174 16.9593C56.9609 16.9593 56.405 16.7317 55.9496 16.2765C55.4943 15.8213 55.2667 15.2577 55.2667 14.5858C55.2667 13.9138 55.4943 13.3503 55.9496 12.8951C56.405 12.4399 56.9609 12.2123 57.6174 12.2123C58.2739 12.2123 58.835 12.4399 59.301 12.8951C59.7669 13.3503 59.9998 13.9138 59.9998 14.5858C59.9998 15.2577 59.7669 15.8213 59.301 16.2765C58.835 16.7317 58.2739 16.9593 57.6174 16.9593Z" fill="white"/>
<path d="M8.5376 15.6728C12.4779 15.6728 15.6721 12.4786 15.6721 8.53831C15.6721 4.59803 12.4779 1.40381 8.5376 1.40381" stroke="#94BDF0" stroke-width="3" stroke-linecap="round"/>
<path d="M8.5376 15.6728C4.59732 15.6728 1.40309 12.4786 1.40309 8.53831C1.40309 4.59803 4.59732 1.40381 8.5376 1.40381" stroke="#F65C53" stroke-width="3" stroke-linecap="round"/>
</g>
<defs>
<clipPath id="clip0">
<rect width="60" height="17.076" fill="white"/>
</clipPath>
</defs>
</svg>
