<svg width="102" height="24" viewBox="0 0 102 24" fill="none" xmlns="http://www.w3.org/2000/svg">
<path fill-rule="evenodd" clip-rule="evenodd" d="M43.753 22C42.1634 22 40.729 21.6975 39.4499 21.0927C38.1707 20.4878 37.1648 19.6577 36.4321 18.6023C35.6994 17.547 35.333 16.3501 35.333 15.0116V9.29729C35.333 7.93307 35.6932 6.69756 36.4134 5.59073C37.1337 4.48391 38.1335 3.60875 39.4126 2.96525C40.6918 2.32175 42.1385 2 43.753 2C45.3675 2 46.8142 2.32175 48.0934 2.96525C49.3725 3.60875 50.3722 4.48391 51.0925 5.59073C51.8128 6.69756 52.173 7.93307 52.173 9.29729V15.0116C52.173 16.3501 51.8066 17.547 51.0739 18.6023C50.3412 19.6577 49.3353 20.4878 48.0561 21.0927C46.777 21.6975 45.3426 22 43.753 22ZM43.7525 18.2548C45.0689 18.2548 46.112 17.9395 46.882 17.3089C47.652 16.6782 48.037 15.8224 48.037 14.7413V9.49032C48.037 8.35776 47.652 7.444 46.882 6.74901C46.112 6.05403 45.0689 5.70654 43.7525 5.70654C42.4361 5.70654 41.3929 6.05403 40.6229 6.74901C39.8529 7.444 39.468 8.35776 39.468 9.49032V14.7413C39.468 15.8224 39.8529 16.6782 40.6229 17.3089C41.3929 17.9395 42.4361 18.2548 43.7525 18.2548ZM55.9035 5.43629C55.9035 3.14542 57.2323 2 59.89 2V4.35521C59.5919 4.68983 59.3063 5.0888 59.0331 5.55212L59.2566 5.70656C59.9769 4.574 60.9269 3.6731 62.1067 3.00386C63.2865 2.33462 64.5843 2 66 2C67.2916 2 68.4217 2.28957 69.3904 2.86873C70.3591 3.44788 71.1104 4.25225 71.6444 5.28185C72.1784 6.31146 72.4454 7.45688 72.4454 8.71814V19.2201C72.4454 20.1982 72.0977 20.906 71.4022 21.3436C70.7068 21.7812 69.6636 22 68.2727 22V9.29729C68.2727 8.24195 67.9684 7.3861 67.3599 6.72973C66.7514 6.07335 65.8634 5.74517 64.6961 5.74517C63.4045 5.74517 62.3116 6.16344 61.4175 7C60.5233 7.83655 60.0762 8.85971 60.0762 10.0695V19.2201C60.0762 20.1982 59.7347 20.906 59.0517 21.3436C58.3686 21.7812 57.3193 22 55.9035 22V5.43629ZM85.1174 22C83.6023 22 82.2176 21.6911 80.9633 21.0733C79.709 20.4556 78.7217 19.5997 78.0014 18.5058C77.2811 17.4118 76.921 16.1828 76.921 14.8185V9.49034C76.921 8.07464 77.2935 6.80052 78.0387 5.66795C78.7838 4.53539 79.7897 3.64093 81.0564 2.98456C82.3232 2.32818 83.6892 2 85.1547 2C86.6201 2 87.9551 2.30888 89.1598 2.92664C90.3644 3.5444 91.3206 4.41312 92.0285 5.53282C92.7364 6.65251 93.0903 7.90733 93.0903 9.29729V11.5753C93.0903 12.0901 92.904 12.5277 92.5315 12.888C92.1589 13.2484 91.687 13.4286 91.1157 13.4286H80.9819V14.5483C80.9819 15.7323 81.3359 16.6847 82.0438 17.4054C82.7516 18.1261 83.7886 18.4865 85.1547 18.4865C86.4959 18.4865 87.5018 18.184 88.1725 17.5791C88.8431 16.9742 89.1784 16.1699 89.1784 15.166C89.3274 15.1403 89.5509 15.1274 89.849 15.1274C90.6935 15.1274 91.3703 15.3269 91.8795 15.7259C92.3887 16.1248 92.6432 16.6847 92.6432 17.4054C92.6432 18.1776 92.3079 18.9176 91.6373 19.6255C90.9667 20.3333 90.0539 20.906 88.899 21.3436C87.744 21.7812 86.4835 22 85.1174 22ZM89.2526 10.2238V9.29716C89.2526 8.13885 88.8739 7.20579 88.1163 6.49793C87.3588 5.79008 86.3591 5.43616 85.1172 5.43616C83.8753 5.43616 82.8756 5.79008 82.118 6.49793C81.3605 7.20579 80.9817 8.13885 80.9817 9.29716V10.2238H89.2526ZM99.2057 22C98.4358 22 97.7838 21.7297 97.2498 21.1892C96.7157 20.6486 96.4487 19.9794 96.4487 19.1814C96.4487 18.3835 96.7157 17.7143 97.2498 17.1737C97.7838 16.6332 98.4358 16.3629 99.2057 16.3629C99.9757 16.3629 100.634 16.6332 101.18 17.1737C101.727 17.7143 102 18.3835 102 19.1814C102 19.9794 101.727 20.6486 101.18 21.1892C100.634 21.7297 99.9757 22 99.2057 22Z" fill="#283039"/>
<path d="M11.8765 22C17.3312 22 21.7531 17.5228 21.7531 12C21.7531 6.47715 17.3312 2 11.8765 2" stroke="#94BDF0" stroke-width="4" stroke-linecap="round"/>
<path d="M11.8765 22C6.42176 22 1.99986 17.5228 1.99986 12C1.99986 6.47715 6.42176 2 11.8765 2" stroke="#F65C53" stroke-width="4" stroke-linecap="round"/>
</svg>
