<svg width="22" height="74" viewBox="0 0 22 74" fill="none" xmlns="http://www.w3.org/2000/svg">
<path fill-rule="evenodd" clip-rule="evenodd" d="M11.294 14.7022L17.5109 20.9191L21.7536 16.6765L15.5367 10.4596L21.7536 4.24264L17.5109 0L11.294 6.21692L5.07711 0L0.834473 4.24264L7.05139 10.4596L0.834473 16.6765L5.07711 20.9191L11.294 14.7022ZM7.05139 36.6656L0.834473 30.4487L5.07711 26.2061L11.294 32.423L17.5109 26.2061L21.7536 30.4487L15.5367 36.6656L21.7536 42.8825L17.5109 47.1252L11.294 40.9082L5.07711 47.1252L0.834473 42.8825L7.05139 36.6656ZM7.05139 62.8712L0.834473 56.6543L5.07711 52.4116L11.294 58.6285L17.5109 52.4116L21.7536 56.6543L15.5367 62.8712L21.7536 69.0881L17.5109 73.3307L11.294 67.1138L5.07711 73.3307L0.834473 69.0881L7.05139 62.8712Z" fill="white" fill-opacity="0.7"/>
</svg>
