<?xml version="1.0" encoding="UTF-8"?>
<svg width="16px" height="16px" viewBox="0 0 16 16" version="1.1" xmlns="http://www.w3.org/2000/svg" xmlns:xlink="http://www.w3.org/1999/xlink">
    <!-- Generator: Sketch 55.1 (78136) - https://sketchapp.com -->
    <title>facebook-icon</title>
    <desc>Created with Sketch.</desc>
    <g id="Symbols" stroke="none" stroke-width="1" fill="none" fill-rule="evenodd">
        <g id="footer" transform="translate(-1060.000000, -128.000000)" fill="#D72B47">
            <g id="Group-7">
                <g transform="translate(108.000000, 80.000000)">
                    <g id="column_3" transform="translate(936.000000, 0.000000)">
                        <g id="Padding-Group-2" transform="translate(0.000000, 36.000000)">
                            <g id="Group-2">
                                <g id="Stacked-Group" transform="translate(16.000000, 12.000000)">
                                    <g id="facebook-icon">
                                        <path d="M8.52129477,15.6363636 L1.20657382,15.6363636 C0.740895955,15.6363636 0.363636364,15.2588702 0.363636364,14.7933737 L0.363636364,1.20656714 C0.363636364,0.740952273 0.740955136,0.363636364 1.20657382,0.363636364 L14.7934857,0.363636364 C15.2589857,0.363636364 15.6363636,0.740952273 15.6363636,1.20656714 L15.6363636,14.7933737 C15.6363636,15.2589294 15.2589265,15.6363636 14.7934857,15.6363636 L10.901597,15.6363636 L10.901597,9.72192205 L12.8868021,9.72192205 L13.1840584,7.41695918 L10.901597,7.41695918 L10.901597,5.94538577 C10.901597,5.27804586 11.0869084,4.82327591 12.043865,4.82327591 L13.2644171,4.82274232 L13.2644171,2.76116532 C13.0533274,2.73307527 12.3287949,2.67031773 11.4858575,2.67031773 C9.72608355,2.67031773 8.52129477,3.74448555 8.52129477,5.71711195 L8.52129477,7.41695918 L6.53099336,7.41695918 L6.53099336,9.72192205 L8.52129477,9.72192205 L8.52129477,15.6363636 L8.52129477,15.6363636 Z" id="Facebook"></path>
                                    </g>
                                </g>
                            </g>
                        </g>
                    </g>
                </g>
            </g>
        </g>
    </g>
</svg>