<?xml version="1.0" encoding="UTF-8"?>
<svg width="14px" height="12px" viewBox="0 0 14 12" version="1.1" xmlns="http://www.w3.org/2000/svg" xmlns:xlink="http://www.w3.org/1999/xlink">
    <!-- Generator: Sketch 55.1 (78136) - https://sketchapp.com -->
    <title>Icon / Long Right</title>
    <desc>Created with Sketch.</desc>
    <g id="Wynand-Fockink-website" stroke="none" stroke-width="1" fill="none" fill-rule="evenodd">
        <g id="Product" transform="translate(-1305.000000, -1226.000000)" fill="#D72B47">
            <g id="popular" transform="translate(0.000000, 1212.000000)">
                <g id="Group-20" transform="translate(108.000000, 0.000000)">
                    <g id="Group-16" transform="translate(1035.000000, 0.000000)">
                        <g id="Stacked-Group">
                            <g id="Padding-Group-2" transform="translate(149.000000, 0.000000)">
                                <g id="Icon-/-Long-Right" transform="translate(13.000000, 14.000000)">
                                    <path d="M10.5857864,7 L1,7 C0.44771525,7 0,6.55228475 0,6 C0,5.44771525 0.44771525,5 1,5 L10.5857864,5 L7.29289322,1.70710678 C6.90236893,1.31658249 6.90236893,0.683417511 7.29289322,0.292893219 C7.68341751,-0.0976310729 8.31658249,-0.0976310729 8.70710678,0.292893219 L13.7071068,5.29289322 C14.0976311,5.68341751 14.0976311,6.31658249 13.7071068,6.70710678 L8.70710678,11.7071068 C8.31658249,12.0976311 7.68341751,12.0976311 7.29289322,11.7071068 C6.90236893,11.3165825 6.90236893,10.6834175 7.29289322,10.2928932 L10.5857864,7 Z" id="🎨-Icon-Color"></path>
                                </g>
                            </g>
                        </g>
                    </g>
                </g>
            </g>
        </g>
    </g>
</svg>